<svg height="511pt" viewBox="0 -116 511.998 511" width="511pt" xmlns="http://www.w3.org/2000/svg"><path d="m328.144531 240.46875h-304.613281c-8.851562 0-16.03125-7.179688-16.03125-16.035156v-200.402344c0-8.855469 7.179688-16.03125 16.03125-16.03125h304.613281c8.855469 0 16.03125 7.175781 16.03125 16.03125v200.402344c0 8.855468-7.175781 16.035156-16.03125 16.035156zm0 0" fill="#dad8db"/><path d="m328.144531 8h-304.613281c-8.851562 0-16.03125 7.175781-16.03125 16.03125v184.371094h336.675781v-184.371094c0-8.855469-7.175781-16.03125-16.03125-16.03125zm0 0" fill="#a4ccff"/><path d="m215.917969 240.46875h-80.160157l-8.015624 32.0625h96.191406zm0 0" fill="#b6b1b7"/><path d="m31.546875 152.289062v-144.289062h-8.015625c-8.851562 0-16.03125 7.175781-16.03125 16.03125v184.371094h336.675781v-24.046875h-280.5625c-17.710937 0-32.066406-14.359375-32.066406-32.066407zm0 0" fill="#8bb3ea"/><path d="m424.339844 272.53125h-128.257813c-8.855469 0-16.03125-7.179688-16.03125-16.03125v-184.371094c0-8.855468 7.175781-16.03125 16.03125-16.03125h128.257813c8.851562 0 16.03125 7.175782 16.03125 16.03125v184.371094c0 8.851562-7.179688 16.03125-16.03125 16.03125zm0 0" fill="#c8c5c9"/><path d="m424.339844 56.097656h-128.257813c-8.855469 0-16.03125 7.175782-16.03125 16.03125v168.339844h160.320313v-168.339844c0-8.855468-7.179688-16.03125-16.03125-16.03125zm0 0" fill="#ccf49f"/><path d="m304.097656 184.355469v-128.257813h-8.015625c-8.855469 0-16.03125 7.175782-16.03125 16.03125v168.339844h160.320313v-24.050781h-104.210938c-17.707031 0-32.0625-14.355469-32.0625-32.0625zm0 0" fill="#b3e59f"/><path d="m488.46875 272.53125h-64.128906c-8.855469 0-16.03125-7.179688-16.03125-16.03125v-16.03125h96.191406v16.03125c0 8.851562-7.179688 16.03125-16.03125 16.03125zm0 0" fill="#c8c5c9"/><path d="m488.46875 120.226562h-64.128906c-8.855469 0-16.03125 7.175782-16.03125 16.03125v104.210938h96.191406v-104.210938c0-8.855468-7.179688-16.03125-16.03125-16.03125zm0 0" fill="#ffe07d"/><path d="m432.355469 192.371094v-72.144532h-8.015625c-8.855469 0-16.03125 7.175782-16.03125 16.03125v104.210938h96.191406v-24.050781h-48.097656c-13.28125 0-24.046875-10.765625-24.046875-24.046875zm0 0" fill="#ffd064"/><path d="m488.46875 112.722656h-40.597656v-40.59375c0-12.976562-10.558594-23.535156-23.53125-23.535156h-72.664063v-24.5625c0-12.976562-10.554687-23.53125-23.53125-23.53125h-304.613281c-12.972656 0-23.53125 10.554688-23.53125 23.53125v200.402344c0 12.976562 10.558594 23.53125 23.53125 23.53125h102.621094l-4.265625 17.066406h-10.175781c-4.144532 0-7.5 3.355469-7.5 7.5 0 4.140625 3.355468 7.5 7.5 7.5h128.257812c4.140625 0 7.5-3.359375 7.5-7.5 0-4.144531-3.359375-7.5-7.5-7.5h-10.179688l-4.265624-17.066406h47.023437v8.53125c0 12.976562 10.558594 23.535156 23.53125 23.535156h192.386719c12.976562 0 23.53125-10.558594 23.53125-23.535156v-120.238282c.003906-12.976562-10.554688-23.535156-23.527344-23.535156zm8.53125 23.535156v96.710938h-81.191406v-96.710938c0-4.707031 3.828125-8.53125 8.53125-8.53125h64.128906c4.703125-.003906 8.53125 3.824219 8.53125 8.53125zm-282.671875 128.773438h-76.980469l4.265625-17.0625h68.449219zm-190.796875-32.0625c-4.703125 0-8.53125-3.828125-8.53125-8.535156v-8.53125h8.53125c4.144531 0 7.5-3.355469 7.5-7.5 0-4.140625-3.355469-7.5-7.5-7.5h-8.53125v-176.871094c0-4.707031 3.828125-8.53125 8.53125-8.53125h304.613281c4.707031 0 8.53125 3.828125 8.53125 8.53125v24.5625h-40.597656c-12.972656 0-23.53125 10.558594-23.53125 23.535156v128.773438h-216.949219c-4.140625 0-7.5 3.355468-7.5 7.5 0 4.140625 3.359375 7.5 7.5 7.5h216.949219v17.0625h-249.015625zm264.015625 23.53125v-8.53125h8.535156c4.140625 0 7.5-3.359375 7.5-7.5 0-4.144531-3.359375-7.5-7.5-7.5h-8.535156v-160.839844c0-4.707031 3.828125-8.53125 8.53125-8.53125h128.261719c4.703125 0 8.53125 3.828125 8.53125 8.53125v40.597656h-8.53125c-12.976563 0-23.535156 10.554688-23.535156 23.53125v96.710938h-72.65625c-4.144532 0-7.5 3.355469-7.5 7.5 0 4.140625 3.355468 7.5 7.5 7.5h72.65625v8.53125c0 3.007812.574218 5.882812 1.609374 8.53125h-106.332031c-4.707031 0-8.535156-3.828125-8.535156-8.53125zm200.921875 8.53125h-64.128906c-4.707032 0-8.53125-3.828125-8.53125-8.53125v-8.53125h81.191406v8.53125c0 4.703125-3.828125 8.53125-8.53125 8.53125zm0 0"/></svg>